<mxfile host="app.diagrams.net" modified="2023-05-26T00:30:55.714Z" agent="Mozilla/5.0 (iPad; CPU OS 16_3 like Mac OS X) AppleWebKit/605.1.15 (KHTML, like Gecko) CriOS/112.0.5615.46 Mobile/15E148 Safari/604.1" version="21.3.4" etag="fjg4oAWazRralZTEbT2l" type="github">
  <diagram name="第 1 页" id="-UeoEOtPsgfpbaqNMSSu">
    <mxGraphModel>
      <root>
        <mxCell id="0" />
        <mxCell id="1" parent="0" />
      </root>
    </mxGraphModel>
  </diagram>
</mxfile>
